<svg width="55" height="55" viewBox="0 0 55 55" fill="none" xmlns="http://www.w3.org/2000/svg">
<path fill-rule="evenodd" clip-rule="evenodd" d="M16.1416 0.337505C11.6649 0.539493 7.78474 1.63398 4.65161 4.75389C1.50754 7.89018 0.426639 11.7857 0.224148 16.2158C0.0982751 18.9809 -0.637764 39.8703 1.49659 45.3486C2.93592 49.0445 5.77071 51.8861 9.50036 53.3301C11.2407 54.007 13.2273 54.4652 16.1416 54.599C40.5088 55.7017 49.5415 55.1014 53.3505 45.3486C54.0264 43.6126 54.4916 41.6277 54.6202 38.7207C55.7339 14.291 54.4396 8.99565 50.1928 4.75389C46.8243 1.39377 42.8621 -0.893532 16.1416 0.337505ZM16.3659 49.6858C13.6979 49.5657 12.2504 49.1211 11.2845 48.7472C8.85461 47.8027 7.02946 45.9851 6.09089 43.5694C4.4655 39.4068 5.00458 19.6364 5.14961 16.4374C5.2919 13.3038 5.92672 10.4399 8.1377 8.22899C10.8741 5.49939 14.4094 4.16164 38.4811 5.24803C41.6224 5.38996 44.4929 6.02349 46.7094 8.22899C49.4457 10.9586 50.803 14.5211 49.6975 38.5005C49.5771 41.1618 49.1311 42.6059 48.7562 43.5694C46.2798 49.9157 40.5826 50.7967 16.3659 49.6858ZM38.7466 12.8965C38.7466 14.7035 40.216 16.1728 42.0302 16.1728C43.8444 16.1728 45.3166 14.7035 45.3166 12.8965C45.3166 11.0895 43.8444 9.62144 42.0302 9.62144C40.216 9.62144 38.7466 11.0895 38.7466 12.8965ZM13.3723 27.4669C13.3723 35.208 19.6632 41.4841 27.4235 41.4841C35.1838 41.4841 41.4747 35.208 41.4747 27.4669C41.4747 19.7258 35.1838 13.4537 27.4235 13.4537C19.6632 13.4537 13.3723 19.7258 13.3723 27.4669ZM18.3033 27.4669C18.3033 22.4445 22.3859 18.3696 27.4235 18.3696C32.4612 18.3696 36.5438 22.4445 36.5438 27.4669C36.5438 32.4921 32.4612 36.5682 27.4235 36.5682C22.3859 36.5682 18.3033 32.4921 18.3033 27.4669Z" fill="#FFA2A2"/>
</svg>
