<svg width="47" height="124" viewBox="0 0 47 124" fill="none" xmlns="http://www.w3.org/2000/svg">
<path d="M25.6117 112.83L41.2617 97.1799L45.3878 101.306L22.6941 124L0 101.306L4.12616 97.1799L19.7764 112.83V67.106H25.6117V112.83Z" fill="#FFA2A2"/>
<path d="M11.7075 7.48382C13.8694 6.32767 16.2183 5.83529 20.8352 5.83529H25.8471C30.464 5.83529 32.813 6.32767 34.9747 7.48382C36.8108 8.4657 38.2168 9.87162 39.1986 11.7075C40.3545 13.8694 40.847 16.2183 40.847 20.8352V37.5177C40.847 42.1346 40.3545 44.4836 39.1986 46.6453C38.2168 48.4814 36.8108 49.8874 34.9747 50.8692C32.813 52.0251 30.464 52.5176 25.8471 52.5176H20.8352C16.2183 52.5176 13.8694 52.0251 11.7075 50.8692C9.87162 49.8874 8.4657 48.4814 7.48382 46.6453C6.32767 44.4836 5.83529 42.1346 5.83529 37.5177V20.8352C5.83529 16.2183 6.32767 13.8694 7.48382 11.7075C8.4657 9.87162 9.87162 8.4657 11.7075 7.48382ZM25.8471 0H20.8352C14.9594 0 11.8084 0.812506 8.9556 2.3382C6.10278 3.8639 3.8639 6.10278 2.3382 8.9556C0.812507 11.8084 0 14.9594 0 20.8352V37.5177C0 43.3936 0.812507 46.5446 2.3382 49.3972C3.8639 52.2501 6.10278 54.4891 8.9556 56.0147C11.8084 57.5404 14.9594 58.3529 20.8352 58.3529H25.8471C31.723 58.3529 34.874 57.5404 37.7266 56.0147C40.5795 54.4891 42.8185 52.2501 44.3441 49.3972C45.8698 46.5446 46.6823 43.3936 46.6823 37.5177V20.8352C46.6823 14.9594 45.8698 11.8084 44.3441 8.9556C42.8185 6.10278 40.5795 3.8639 37.7266 2.3382C34.874 0.812506 31.723 0 25.8471 0ZM26.2588 11.6706H20.4235V26.2588H26.2588V11.6706ZM10.964 34.3057L23.3426 46.6841L35.721 34.3057L31.5949 30.1795L23.3426 38.4318L15.0902 30.1795L10.964 34.3057Z" fill="#FFA2A2"/>
</svg>
