<svg width="50" height="54" viewBox="0 0 50 54" fill="none" xmlns="http://www.w3.org/2000/svg">
<path d="M50 13.499V18.8985C50 19.6145 49.7073 20.3012 49.1864 20.8075C48.6655 21.3138 47.9589 21.5982 47.2222 21.5982C43.3193 21.5915 39.4871 20.5859 36.1111 18.6825V36.4468C36.112 39.5639 35.2586 42.625 33.6387 45.3152C32.0187 48.0055 29.6907 50.2278 26.8941 51.7537C24.0975 53.2795 20.9331 54.0539 17.7265 53.9971C14.5198 53.9403 11.3866 53.0543 8.64905 51.4304C5.91149 49.8065 3.66839 47.5032 2.15042 44.7573C0.632452 42.0115 -0.105594 38.9222 0.0121806 35.8072C0.129955 32.6923 1.0993 29.664 2.82053 27.0338C4.54176 24.4037 6.95275 22.2666 9.80556 20.8423C10.2324 20.6213 10.7113 20.5124 11.1947 20.5265C11.6782 20.5406 12.1495 20.6771 12.562 20.9226C12.9745 21.168 13.3139 21.5139 13.5466 21.926C13.7793 22.3381 13.8973 22.8021 13.8889 23.2721V30.0754C13.8592 30.7095 13.5809 31.3084 13.1111 31.7493C12.1135 32.73 11.4504 33.9852 11.2118 35.3447C10.9731 36.7041 11.1704 38.102 11.7769 39.3488C12.3835 40.5956 13.3698 41.6309 14.6023 42.3143C15.8348 42.9977 17.2537 43.2962 18.6667 43.1692C20.441 42.9497 22.0692 42.1005 23.2383 40.7849C24.4074 39.4692 25.0349 37.7799 25 36.0419V2.70003C25 1.98401 25.2927 1.29732 25.8136 0.791022C26.3345 0.284722 27.0411 0.000285545 27.7778 0.000285545H33.6389C34.3006 -0.00906559 34.9441 0.211529 35.4534 0.622342C35.9626 1.03316 36.3042 1.60719 36.4167 2.24107C36.9428 4.65176 38.3013 6.81506 40.2669 8.37182C42.2325 9.92857 44.6867 10.7851 47.2222 10.7993C47.9589 10.7993 48.6655 11.0837 49.1864 11.59C49.7073 12.0963 50 12.783 50 13.499Z" fill="#FFA2A2"/>
</svg>
