<svg width="788" height="1000" viewBox="0 0 788 1000" fill="none" xmlns="http://www.w3.org/2000/svg">
<path d="M383.333 493.75C383.333 754.935 350.191 966.667 304.167 966.667C258.143 966.667 220.833 754.935 220.833 493.75C220.833 232.565 258.143 20.8333 304.167 20.8333C350.191 20.8333 383.333 232.565 383.333 493.75Z" fill="#FF8181"/>
<path d="M510.416 493.75C510.416 741.127 493.722 941.667 450 941.667C406.277 941.667 393.75 732.794 393.75 485.417C393.75 238.039 406.277 45.8333 450 45.8333C493.722 45.8333 510.416 246.372 510.416 493.75Z" fill="#FF8181"/>
<path d="M620.833 493.75C620.833 715.814 618.287 895.833 579.167 895.833C540.046 895.833 529.167 715.814 529.167 493.75C529.167 271.685 540.046 91.6667 579.167 91.6667C618.287 91.6667 620.833 271.685 620.833 493.75Z" fill="#FF8181"/>
<path d="M714.584 493.75C714.584 655.984 710.016 787.5 681.251 787.5C652.486 787.5 656.25 655.984 656.25 493.75C656.25 331.516 652.486 200 681.251 200C710.016 200 714.584 331.516 714.584 493.75Z" fill="#FF8181"/>
<path d="M787.5 493.75C787.5 575.442 785.222 641.667 770.879 641.667C756.537 641.667 758.414 575.442 758.414 493.75C758.414 412.058 756.537 345.833 770.879 345.833C785.222 345.833 787.5 412.058 787.5 493.75Z" fill="#FF8181"/>
<path fill-rule="evenodd" clip-rule="evenodd" d="M71.2055 0C31.8798 0 0 31.8798 0 71.2055V928.794C0 968.12 31.8798 1000 71.2055 1000H122.611C122.669 1000 122.727 1000 122.784 999.999C122.854 1000 122.924 1000 122.994 1000C181.717 1000 229.321 776.142 229.321 500C229.321 223.858 181.717 8.35777e-05 122.994 8.35777e-05C122.926 8.35777e-05 122.859 0.000378894 122.791 0.000969265C122.731 0.000323637 122.671 0 122.611 0H71.2055Z" fill="#FF8181"/>
</svg>
