<svg width="339" height="339" viewBox="0 0 339 339" fill="none" xmlns="http://www.w3.org/2000/svg">
<circle cx="169.5" cy="169.5" r="169.5" fill="#FF8181"/>
<path d="M166.461 168.381C166.461 232.06 158.38 283.683 147.159 283.683C135.938 283.683 126.842 232.06 126.842 168.381C126.842 104.702 135.938 53.0794 147.159 53.0794C158.38 53.0794 166.461 104.702 166.461 168.381Z" fill="#F8F7FF"/>
<path d="M197.445 168.381C197.445 228.694 193.374 277.587 182.714 277.587C172.054 277.587 169 226.662 169 166.349C169 106.036 172.054 59.1746 182.714 59.1746C193.374 59.1746 197.445 108.068 197.445 168.381Z" fill="#F8F7FF"/>
<path d="M224.365 168.381C224.365 222.523 223.744 266.413 214.206 266.413C204.669 266.413 202.016 222.523 202.016 168.381C202.016 114.24 204.669 70.3494 214.206 70.3494C223.744 70.3494 224.365 114.24 224.365 168.381Z" fill="#F8F7FF"/>
<path d="M247.222 168.381C247.222 207.935 246.108 240 239.095 240C232.082 240 233 207.935 233 168.381C233 128.827 232.082 96.7618 239.095 96.7618C246.108 96.7618 247.222 128.827 247.222 168.381Z" fill="#F8F7FF"/>
<path d="M265 168.381C265 188.298 264.445 204.444 260.948 204.444C257.451 204.444 257.909 188.298 257.909 168.381C257.909 148.463 257.451 132.317 260.948 132.317C264.445 132.317 265 148.463 265 168.381Z" fill="#F8F7FF"/>
<path fill-rule="evenodd" clip-rule="evenodd" d="M90.3606 48C80.7726 48 73 55.7726 73 65.3606V274.449C73 284.037 80.7726 291.81 90.3606 291.81H102.894C102.908 291.81 102.922 291.809 102.937 291.809C102.954 291.809 102.97 291.81 102.987 291.81C117.304 291.81 128.911 237.231 128.911 169.905C128.911 102.579 117.304 48 102.987 48C102.97 48 102.954 48.0001 102.937 48.0002C102.923 48.0001 102.908 48 102.894 48H90.3606Z" fill="#F8F7FF"/>
</svg>
